<svg xmlns="http://www.w3.org/2000/svg" viewBox="0 0 24 24" id="github"><path fill="#303c42" d="M12 0C5.383 0 0 5.383 0 12c0 5.738 3.95 10.78 9.392 11.988A.5.5 0 0 0 10 23.5v-3a.5.5 0 0 0-.5-.5h-1c-1.248 0-2.097-1.183-2.847-2.226-.077-.107-.153-.214-.23-.318.355.188.66.415.961.638.601.445 1.23.883 2.053.903.063.006.648.067 1.1-.33.212-.188.463-.541.463-1.167v-.349a.499.499 0 0 0-.364-.481C6.863 15.885 5 13.807 5 11.5c0-1.2.493-2.345 1.425-3.312a.5.5 0 0 0 .094-.558c-.372-.802-.293-1.893.148-2.548.584.227 1.341.704 1.833 1.288a.5.5 0 0 0 .554.147 8.67 8.67 0 0 1 5.893 0c.199.074.42.013.554-.147.492-.584 1.249-1.061 1.832-1.289.442.655.521 1.747.148 2.549a.5.5 0 0 0 .094.558C18.507 9.155 19 10.3 19 11.5c0 2.422-2.07 4.591-5.033 5.274a.5.5 0 0 0-.329.72c.247.469.362 1.107.362 2.006v4a.5.5 0 0 0 .608.488C20.05 22.78 24 17.738 24 12c0-6.617-5.383-12-12-12z"></path><path fill="#5c6671" d="M15 22.856V19.5c0-.765-.078-1.384-.242-1.901C17.873 16.67 20 14.228 20 11.5c0-1.364-.512-2.66-1.484-3.766.429-1.243.165-2.761-.662-3.587a.495.495 0 0 0-.481-.13c-.668.177-1.66.696-2.401 1.451a9.706 9.706 0 0 0-5.941 0c-.743-.756-1.735-1.275-2.403-1.451a.494.494 0 0 0-.482.129c-.826.827-1.091 2.345-.662 3.588C4.512 8.84 4 10.136 4 11.5c0 2.653 1.994 5.035 5 6.021-.002.135-.026.306-.121.392-.116.105-.322.09-.379.087-.562 0-.984-.313-1.52-.71C6.205 16.715 5.24 16 3.5 16a.5.5 0 0 0 0 1c.366 0 .862.69 1.341 1.357C5.687 19.535 6.74 21 8.5 21H9v1.856C4.398 21.526 1 16.972 1 12 1 5.935 5.935 1 12 1s11 4.935 11 11c0 4.972-3.398 9.526-8 10.856z"></path><path fill="#fff" d="M1.5 12.5c0-6.065 4.935-11 11-11 2.906 0 5.544 1.141 7.513 2.987C18.004 2.347 15.16 1 12 1 5.935 1 1 5.935 1 12c0 3.213 1.424 6.245 3.67 8.352C2.716 18.279 1.5 15.467 1.5 12.5z" opacity=".2"></path><linearGradient id="a" x1="10.344" x2="19.832" y1="10.382" y2="19.87" gradientUnits="userSpaceOnUse"><stop offset="0" stop-opacity=".1"></stop><stop offset="1" stop-opacity="0"></stop></linearGradient><path fill="url(#a)" d="M6.369 20.152 9 22.783V21h-.5c-.861 0-1.55-.353-2.131-.848zm-.896-4.899.457.457a6.77 6.77 0 0 1-.45-.464l-.007.007zm.264 4.267.03.03-.024-.028-.006-.002zm2.438-1.565c.105.024.211.045.325.045.057.003.263.018.379-.086.095-.087.119-.257.121-.393a8.223 8.223 0 0 1-2.881-1.622l2.056 2.056zM22.527 8.82l-4.674-4.674c.827.827 1.091 2.345.662 3.587C19.488 8.84 20 10.136 20 11.5c0 2.728-2.127 5.17-5.242 6.099.164.517.242 1.136.242 1.901v3.356c4.602-1.33 8-5.885 8-10.856 0-1.106-.168-2.172-.473-3.18z"></path><linearGradient id="b" x1="1.074" x2="22.865" y1="7.037" y2="17.198" gradientUnits="userSpaceOnUse"><stop offset="0" stop-color="#fff" stop-opacity=".2"></stop><stop offset="1" stop-color="#fff" stop-opacity="0"></stop></linearGradient><path fill="url(#b)" d="M12 0C5.383 0 0 5.383 0 12c0 5.738 3.95 10.78 9.392 11.988A.5.5 0 0 0 10 23.5v-3a.5.5 0 0 0-.5-.5h-1c-1.248 0-2.097-1.183-2.847-2.226-.077-.107-.153-.214-.23-.318.355.188.66.415.961.638.601.445 1.23.883 2.053.903.063.006.648.067 1.1-.33.212-.188.463-.541.463-1.167v-.349a.499.499 0 0 0-.364-.481C6.863 15.885 5 13.807 5 11.5c0-1.2.493-2.345 1.425-3.312a.5.5 0 0 0 .094-.558c-.372-.802-.293-1.893.148-2.548.584.227 1.341.704 1.833 1.288a.5.5 0 0 0 .554.147 8.67 8.67 0 0 1 5.893 0c.199.074.42.013.554-.147.492-.584 1.249-1.061 1.832-1.289.442.655.521 1.747.148 2.549a.5.5 0 0 0 .094.558C18.507 9.155 19 10.3 19 11.5c0 2.422-2.07 4.591-5.033 5.274a.5.5 0 0 0-.329.72c.247.469.362 1.107.362 2.006v4a.5.5 0 0 0 .608.488C20.05 22.78 24 17.738 24 12c0-6.617-5.383-12-12-12z"></path></svg>