<svg xmlns="http://www.w3.org/2000/svg" enable-background="new 0 0 24 24" viewBox="0 0 24 24" id="microsoft"><rect width="11.496" height="11.496" x="11.754" y="12" fill="#F5B200"></rect><rect width="11.496" height="11.496" x="11.754" y=".367" fill="#62BC2B"></rect><rect width="11.496" height="11.496" x=".75" y="12" fill="#219ADA"></rect><rect width="11.496" height="11.496" x=".75" y=".367" fill="#F32601"></rect><path d="M23.25,24H0.75C0.336,24,0,23.664,0,23.25V0.75C0,0.336,0.336,0,0.75,0h22.5C23.664,0,24,0.336,24,0.75v22.5C24,23.664,23.664,24,23.25,24z M1.5,22.5h21v-21h-21V22.5z"></path><path d="M12,24c-0.414,0-0.75-0.336-0.75-0.75V0.75C11.25,0.336,11.586,0,12,0s0.75,0.336,0.75,0.75v22.5C12.75,23.664,12.414,24,12,24z"></path><path d="M23.25,12.75H0.75C0.336,12.75,0,12.414,0,12s0.336-0.75,0.75-0.75h22.5c0.414,0,0.75,0.336,0.75,0.75S23.664,12.75,23.25,12.75z"></path></svg>