<svg xmlns="http://www.w3.org/2000/svg" viewBox="0 0 24 24" id="wikipedia"><path fill="#303c42" d="M23.5 3h-4.001a.5.5 0 0 0-.5.5v1a.5.5 0 0 0 .5.5h.966l-4.924 10.258-1.783-4.457L16.571 5h.929a.5.5 0 0 0 .5-.5v-1a.5.5 0 0 0-.5-.5h-4a.5.5 0 0 0-.5.5v1a.5.5 0 0 0 .5.5h.465l-1.378 2.871L11.438 5H12a.5.5 0 0 0 .5-.5v-1A.5.5 0 0 0 12 3H7a.5.5 0 0 0-.5.5v1A.5.5 0 0 0 7 5h1.356l2.528 6.418-1.843 3.84L4.938 5H5.5a.5.5 0 0 0 .5-.5v-1a.5.5 0 0 0-.5-.5h-5a.5.5 0 0 0-.5.5v1a.5.5 0 0 0 .5.5h1.356l6.178 15.684a.502.502 0 0 0 .916.034l3.089-6.37 2.496 6.336a.499.499 0 0 0 .446.316H15a.5.5 0 0 0 .45-.282L23.071 5h.429a.5.5 0 0 0 .5-.5v-1a.5.5 0 0 0-.5-.5z"></path><linearGradient id="a" x1="-.441" x2="19.741" y1="4.333" y2="13.744" gradientUnits="userSpaceOnUse"><stop offset="0" stop-color="#fff" stop-opacity=".2"></stop><stop offset="1" stop-color="#fff" stop-opacity="0"></stop></linearGradient><path fill="url(#a)" d="M23.5 3h-4.001a.5.5 0 0 0-.5.5v1a.5.5 0 0 0 .5.5h.966l-4.924 10.258-1.783-4.457L16.571 5h.929a.5.5 0 0 0 .5-.5v-1a.5.5 0 0 0-.5-.5h-4a.5.5 0 0 0-.5.5v1a.5.5 0 0 0 .5.5h.465l-1.378 2.871L11.438 5H12a.5.5 0 0 0 .5-.5v-1A.5.5 0 0 0 12 3H7a.5.5 0 0 0-.5.5v1A.5.5 0 0 0 7 5h1.356l2.528 6.418-1.843 3.84L4.938 5H5.5a.5.5 0 0 0 .5-.5v-1a.5.5 0 0 0-.5-.5h-5a.5.5 0 0 0-.5.5v1a.5.5 0 0 0 .5.5h1.356l6.178 15.684a.502.502 0 0 0 .916.034l3.089-6.37 2.496 6.336a.499.499 0 0 0 .446.316H15a.5.5 0 0 0 .45-.282L23.071 5h.429a.5.5 0 0 0 .5-.5v-1a.5.5 0 0 0-.5-.5z"></path></svg>